HIERARCHY
ROOT Hips
{
	OFFSET 0.000000 102.714745 0.000000
	CHANNELS 6 Xposition Yposition Zposition Xrotation Yrotation Zrotation 
	JOINT Spine
	{
		OFFSET 0.000000 5.645699 -0.031900
		CHANNELS 3 Xrotation Yrotation Zrotation
		JOINT Spine1
		{
			OFFSET 0.000000 4.704791 -0.026605
			CHANNELS 3 Xrotation Yrotation Zrotation
			JOINT Spine1_split
			{
				OFFSET 0.000000 4.704791 -0.026605
				CHANNELS 3 Xrotation Yrotation Zrotation
				JOINT Spine2
				{
					OFFSET 0.000000 4.704791 -0.026605
					CHANNELS 3 Xrotation Yrotation Zrotation
					JOINT Neck
					{
						OFFSET 0.000000 8.468559 -0.047889
						CHANNELS 3 Xrotation Yrotation Zrotation
						JOINT Head
						{
							OFFSET 0.000000 5.998901 -1.159000
							CHANNELS 3 Xrotation Yrotation Zrotation
							JOINT HeadTop_End
							{
								OFFSET 0.000000 21.748795 -4.201800
								CHANNELS 3 Xrotation Yrotation Zrotation
								End Site
								{
									OFFSET 0.000000 0.000000 0.000000
								}
							}
						}
					}
					JOINT LeftShoulder
					{
						OFFSET 1.707350 3.671589 -0.029462
						CHANNELS 3 Xrotation Yrotation Zrotation
						JOINT LeftShoulder_split
						{
							OFFSET 1.707350 3.671589 -0.029462
							CHANNELS 3 Xrotation Yrotation Zrotation
							JOINT LeftArm
							{
								OFFSET 6.833681 -2.234299 -0.022073
								CHANNELS 3 Xrotation Yrotation Zrotation
								JOINT LeftForeArm
								{
									OFFSET 24.203604 0.000000 0.000001
									CHANNELS 3 Xrotation Yrotation Zrotation
									JOINT LeftHand
									{
										OFFSET 21.595112 0.000000 0.000001
										CHANNELS 3 Xrotation Yrotation Zrotation
										JOINT LeftHandThumb1
										{
											OFFSET 2.307610 -1.154526 1.889843
											CHANNELS 3 Xrotation Yrotation Zrotation
											JOINT LeftHandThumb2
											{
												OFFSET 1.981960 -1.144287 1.144286
												CHANNELS 3 Xrotation Yrotation Zrotation
												JOINT LeftHandThumb3
												{
													OFFSET 2.405823 -1.389000 1.389003
													CHANNELS 3 Xrotation Yrotation Zrotation
													JOINT LeftHandThumb4
													{
														OFFSET 2.095798 -1.210007 1.210009
														CHANNELS 3 Xrotation Yrotation Zrotation
														End Site
														{
															OFFSET 0.000000 0.000000 0.000000
														}
													}
												}
											}
										}
										JOINT LeftHandIndex1
										{
											OFFSET 7.339149 -0.166130 1.755469
											CHANNELS 3 Xrotation Yrotation Zrotation
											JOINT LeftHandIndex2
											{
												OFFSET 3.000099 0.000000 0.000000
												CHANNELS 3 Xrotation Yrotation Zrotation
												JOINT LeftHandIndex3
												{
													OFFSET 2.748604 0.000000 0.000000
													CHANNELS 3 Xrotation Yrotation Zrotation
													JOINT LeftHandIndex4
													{
														OFFSET 2.334297 0.000000 0.000000
														CHANNELS 3 Xrotation Yrotation Zrotation
														End Site
														{
															OFFSET 0.000000 0.000000 0.000000
														}
													}
												}
											}
										}
										JOINT LeftHandMiddle1
										{
											OFFSET 7.429375 0.000000 0.000000
											CHANNELS 3 Xrotation Yrotation Zrotation
											JOINT LeftHandMiddle2
											{
												OFFSET 3.379601 0.000000 0.000000
												CHANNELS 3 Xrotation Yrotation Zrotation
												JOINT LeftHandMiddle3
												{
													OFFSET 3.190804 0.000000 0.000000
													CHANNELS 3 Xrotation Yrotation Zrotation
													JOINT LeftHandMiddle4
													{
														OFFSET 2.752007 0.000000 0.000000
														CHANNELS 3 Xrotation Yrotation Zrotation
														End Site
														{
															OFFSET 0.000000 0.000000 0.000000
														}
													}
												}
											}
										}
										JOINT LeftHandRing1
										{
											OFFSET 7.390202 -0.186775 -1.720850
											CHANNELS 3 Xrotation Yrotation Zrotation
											JOINT LeftHandRing2
											{
												OFFSET 2.845203 0.000000 0.000000
												CHANNELS 3 Xrotation Yrotation Zrotation
												JOINT LeftHandRing3
												{
													OFFSET 2.681000 0.000000 0.000000
													CHANNELS 3 Xrotation Yrotation Zrotation
													JOINT LeftHandRing4
													{
														OFFSET 2.280701 0.000000 0.000000
														CHANNELS 3 Xrotation Yrotation Zrotation
														End Site
														{
															OFFSET 0.000000 0.000000 0.000000
														}
													}
												}
											}
										}
										JOINT LeftHandPinky1
										{
											OFFSET 7.037655 -0.101418 -3.301136
											CHANNELS 3 Xrotation Yrotation Zrotation
											JOINT LeftHandPinky2
											{
												OFFSET 2.480198 0.000000 0.000000
												CHANNELS 3 Xrotation Yrotation Zrotation
												JOINT LeftHandPinky3
												{
													OFFSET 1.951103 0.000000 0.000000
													CHANNELS 3 Xrotation Yrotation Zrotation
													JOINT LeftHandPinky4
													{
														OFFSET 1.659500 0.000000 0.000000
														CHANNELS 3 Xrotation Yrotation Zrotation
														End Site
														{
															OFFSET 0.000000 0.000000 0.000000
														}
													}
												}
											}
										}
									}
								}
							}
						}
					}
					JOINT RightShoulder
					{
						OFFSET -1.707350 3.671559 -0.018412
						CHANNELS 3 Xrotation Yrotation Zrotation
						JOINT RightShoulder_split
						{
							OFFSET -1.707350 3.671559 -0.018412
							CHANNELS 3 Xrotation Yrotation Zrotation
							JOINT RightArm
							{
								OFFSET -6.833705 -2.234222 0.022066
								CHANNELS 3 Xrotation Yrotation Zrotation
								JOINT RightForeArm
								{
									OFFSET -24.202705 0.000000 -0.000001
									CHANNELS 3 Xrotation Yrotation Zrotation
									JOINT RightHand
									{
										OFFSET -21.595596 0.000000 -0.000001
										CHANNELS 3 Xrotation Yrotation Zrotation
										JOINT RightHandThumb1
										{
											OFFSET -2.350891 -1.235085 1.890874
											CHANNELS 3 Xrotation Yrotation Zrotation
											JOINT RightHandThumb2
											{
												OFFSET -2.020119 -1.166313 1.166315
												CHANNELS 3 Xrotation Yrotation Zrotation
												JOINT RightHandThumb3
												{
													OFFSET -2.370068 -1.368362 1.368359
													CHANNELS 3 Xrotation Yrotation Zrotation
													JOINT RightHandThumb4
													{
														OFFSET -2.055340 -1.186646 1.186648
														CHANNELS 3 Xrotation Yrotation Zrotation
														End Site
														{
															OFFSET 0.000000 0.000000 0.000000
														}
													}
												}
											}
										}
										JOINT RightHandIndex1
										{
											OFFSET -7.350540 -0.173004 1.735458
											CHANNELS 3 Xrotation Yrotation Zrotation
											JOINT RightHandIndex2
											{
												OFFSET -2.949303 0.000000 -0.000000
												CHANNELS 3 Xrotation Yrotation Zrotation
												JOINT RightHandIndex3
												{
													OFFSET -2.801605 0.000000 -0.000000
													CHANNELS 3 Xrotation Yrotation Zrotation
													JOINT RightHandIndex4
													{
														OFFSET -2.363510 0.000000 -0.000000
														CHANNELS 3 Xrotation Yrotation Zrotation
														End Site
														{
															OFFSET 0.000000 0.000000 0.000000
														}
													}
												}
											}
										}
										JOINT RightHandMiddle1
										{
											OFFSET -7.311607 0.000000 -0.000001
											CHANNELS 3 Xrotation Yrotation Zrotation
											JOINT RightHandMiddle2
											{
												OFFSET -3.311111 0.000000 -0.000000
												CHANNELS 3 Xrotation Yrotation Zrotation
												JOINT RightHandMiddle3
												{
													OFFSET -3.189102 0.000000 -0.000000
													CHANNELS 3 Xrotation Yrotation Zrotation
													JOINT RightHandMiddle4
													{
														OFFSET -2.691513 0.000000 -0.000000
														CHANNELS 3 Xrotation Yrotation Zrotation
														End Site
														{
															OFFSET 0.000000 0.000000 0.000000
														}
													}
												}
											}
										}
										JOINT RightHandRing1
										{
											OFFSET -7.330318 -0.067268 -1.836789
											CHANNELS 3 Xrotation Yrotation Zrotation
											JOINT RightHandRing2
											{
												OFFSET -2.815502 0.000000 -0.000000
												CHANNELS 3 Xrotation Yrotation Zrotation
												JOINT RightHandRing3
												{
													OFFSET -2.735703 0.000000 -0.000000
													CHANNELS 3 Xrotation Yrotation Zrotation
													JOINT RightHandRing4
													{
														OFFSET -2.353203 0.000000 -0.000000
														CHANNELS 3 Xrotation Yrotation Zrotation
														End Site
														{
															OFFSET 0.000000 0.000000 0.000000
														}
													}
												}
											}
										}
										JOINT RightHandPinky1
										{
											OFFSET -7.114304 -0.155228 -3.255253
											CHANNELS 3 Xrotation Yrotation Zrotation
											JOINT RightHandPinky2
											{
												OFFSET -2.449303 0.000000 -0.000000
												CHANNELS 3 Xrotation Yrotation Zrotation
												JOINT RightHandPinky3
												{
													OFFSET -1.966011 0.000000 0.000000
													CHANNELS 3 Xrotation Yrotation Zrotation
													JOINT RightHandPinky4
													{
														OFFSET -1.612114 0.000000 0.000000
														CHANNELS 3 Xrotation Yrotation Zrotation
														End Site
														{
															OFFSET 0.000000 0.000000 0.000000
														}
													}
												}
											}
										}
									}
								}
							}
						}
					}
				}
			}
		}
	}
	JOINT LeftUpLeg
	{
		OFFSET 6.620200 -8.816803 -0.447200
		CHANNELS 3 Xrotation Yrotation Zrotation
		JOINT LeftLeg
		{
			OFFSET 1.065641 -36.165676 0.650849
			CHANNELS 3 Xrotation Yrotation Zrotation
			JOINT LeftFoot
			{
				OFFSET -1.065643 -46.239597 1.019059
				CHANNELS 3 Xrotation Yrotation Zrotation
				JOINT LeftToeBase
				{
					OFFSET -0.371092 -10.380516 12.650627
					CHANNELS 3 Xrotation Yrotation Zrotation
					JOINT LeftToe_End
					{
						OFFSET -0.094685 -0.116782 6.663305
						CHANNELS 3 Xrotation Yrotation Zrotation
						End Site
						{
							OFFSET 0.000000 0.000000 0.000000
						}
					}
				}
			}
		}
	}
	JOINT RightUpLeg
	{
		OFFSET -6.620200 -8.816803 -0.447200
		CHANNELS 3 Xrotation Yrotation Zrotation
		JOINT RightLeg
		{
			OFFSET -1.065604 -36.165672 0.753674
			CHANNELS 3 Xrotation Yrotation Zrotation
			JOINT RightFoot
			{
				OFFSET 1.065611 -46.239521 0.372126
				CHANNELS 3 Xrotation Yrotation Zrotation
				JOINT RightToeBase
				{
					OFFSET 0.371092 -10.380665 13.284518
					CHANNELS 3 Xrotation Yrotation Zrotation
					JOINT RightToe_End
					{
						OFFSET 0.094680 -0.116865 6.675905
						CHANNELS 3 Xrotation Yrotation Zrotation
						End Site
						{
							OFFSET 0.000000 0.000000 0.000000
						}
					}
				}
			}
		}
	}
}
MOTION
Frames: 4
Frame Time: 0.016667
-1.456758 100.661674 -0.309598 3.560002 -2.770205 -7.859048 4.602588 1.816898 1.805063 2.493924 0.692303 0.369773 0.000000 0.000000 0.000000 2.472811 0.734513 0.380478 6.508252 0.611070 -2.514069 -18.768919 3.723671 0.970343 0.000000 -0.000000 0.000000 0.646937 -17.508121 -15.097481 0.000000 0.000000 0.000000 -0.316547 -18.541564 -60.311219 0.000002 -1.314416 0.000000 -32.922386 -3.039713 2.371123 -2.663420 2.208587 6.081358 14.231445 22.576299 12.932086 -13.682243 2.301860 10.928065 0.000000 -0.000001 -0.000003 0.387728 -0.669788 -10.100726 0.263336 1.738331 -17.226770 0.055564 0.805766 -7.888300 -0.000000 0.000000 0.000000 -0.050328 3.042751 -19.503894 0.246832 1.684187 -16.673926 0.277334 1.782798 -17.682123 -0.000000 0.000001 -0.000003 0.231718 4.063742 -26.183984 0.579478 2.542341 -25.676100 0.452312 2.259069 -22.640767 0.000000 0.000000 -0.000001 0.539468 5.933181 -34.114237 0.355928 2.012622 -20.054977 0.324978 1.925823 -19.154734 -0.000000 -0.000001 -0.000002 1.840451 19.329767 11.482793 0.000000 0.000000 0.000000 9.485483 28.260784 56.773478 0.000004 9.622081 -0.000005 -22.706026 1.736747 3.598097 -1.903911 -0.561025 1.272606 12.212739 -28.868874 -16.285210 -15.905905 -2.846591 -12.405583 -0.000000 -0.000001 -0.000003 0.622952 -0.886413 8.973933 0.183350 -1.295260 16.114385 0.032473 -0.549501 6.761152 0.000002 -0.000001 -0.000000 0.206551 -3.558049 20.967188 0.248672 -1.502952 18.788732 0.275830 -1.580490 19.798067 0.000001 -0.000001 0.000000 -0.218965 -3.024806 29.320120 0.551001 -2.199308 28.127187 0.439348 -1.976442 25.063333 -0.000000 0.000000 0.000001 0.925860 -5.154340 35.116888 0.240719 -1.479352 18.482774 0.217259 -1.407302 17.552270 -0.000000 0.000003 -0.000001 -27.571220 11.469848 17.502114 26.502543 -1.364490 4.151972 -2.931890 0.790058 -7.812748 -4.224670 -0.000002 -0.000001 0.000000 -0.000000 0.000000 -11.087232 -9.995157 10.388556 18.462288 -10.186545 -3.924766 -9.085825 -6.760544 2.078306 -6.993488 0.000079 0.000031 0.000000 -0.000002 -0.000000 
-1.466195 100.697357 -0.278260 3.342165 -2.794501 -7.732378 4.563462 1.819298 1.823678 2.450588 0.700537 0.399034 0.000000 0.000000 0.000000 2.429361 0.741919 0.409791 6.556635 0.595370 -2.442438 -18.368445 3.608908 0.774978 0.000000 -0.000000 0.000000 0.650359 -17.476974 -15.076220 0.000000 0.000000 0.000000 -0.234597 -18.184482 -60.373415 -0.000001 -1.078116 -0.000008 -32.729430 -2.925531 1.831342 -2.262732 2.292747 5.779251 14.241762 22.425826 13.117172 -13.750613 2.368433 10.953700 0.000001 0.000000 -0.000001 0.407038 -0.672190 -10.063538 0.263912 1.740169 -17.245534 0.055820 0.807652 -7.907003 0.000000 0.000000 0.000001 -0.043047 3.060633 -19.464670 0.248300 1.689112 -16.724140 0.278900 1.787678 -17.732117 0.000000 0.000000 -0.000004 0.232979 4.066301 -26.184102 0.576782 2.536731 -25.615253 0.449886 2.253260 -22.579234 0.000000 0.000000 -0.000002 0.591135 5.897226 -33.486235 0.346228 1.985918 -19.777462 0.315736 1.898976 -18.877267 -0.000000 -0.000002 0.000001 1.836858 19.250741 11.491509 0.000000 0.000000 0.000000 9.959218 28.364145 56.422342 0.000017 9.590988 0.000012 -22.644123 1.557212 3.721380 -1.924880 -0.383492 0.777729 12.108366 -28.664491 -16.317500 -15.892518 -2.903203 -12.428558 0.000000 -0.000003 -0.000001 0.612918 -0.813882 8.681113 0.183104 -1.294315 16.102294 0.032340 -0.548506 6.749058 -0.000000 -0.000000 -0.000001 0.189850 -3.508230 20.685655 0.248877 -1.503541 18.796498 0.276060 -1.581089 19.805754 -0.000003 0.000000 0.000002 -0.235945 -2.976372 29.038563 0.548601 -2.194815 28.064593 0.437179 -1.971799 25.000398 0.000001 -0.000001 -0.000001 0.915953 -5.139558 34.720707 0.239924 -1.477008 18.452543 0.216565 -1.405058 17.523202 -0.000000 -0.000003 0.000000 -27.099315 11.588472 17.329978 26.220948 -1.302892 4.171603 -2.931587 0.791007 -7.837847 -4.222624 -0.000006 -0.000003 0.000000 0.000001 0.000000 -10.754208 -10.009088 10.230432 18.319020 -10.182454 -3.886514 -9.084993 -6.634442 2.078153 -6.992350 0.000079 0.000035 -0.000000 -0.000001 -0.000000 
-1.471724 100.733841 -0.244456 3.111838 -2.832595 -7.597377 4.522939 1.821081 1.843782 2.404885 0.707927 0.429754 0.000000 0.000000 0.000000 2.383542 0.748365 0.440571 6.605676 0.581377 -2.379424 -17.944823 3.520631 0.556534 -0.000000 0.000000 -0.000000 0.654629 -17.442223 -15.049188 0.000000 0.000000 0.000000 -0.131955 -17.820920 -60.424908 -0.000006 -0.866415 0.000022 -32.559498 -2.800378 1.272220 -1.928209 2.348299 5.513636 14.263604 22.295488 13.234178 -13.794188 2.408926 10.973365 0.000000 -0.000003 -0.000004 0.418969 -0.675297 -10.035587 0.264340 1.741541 -17.259613 0.056027 0.809082 -7.920990 -0.000000 0.000000 0.000002 -0.037795 3.075016 -19.456612 0.249855 1.694242 -16.776399 0.280510 1.792741 -17.784173 0.000000 0.000000 -0.000002 0.234129 4.068384 -26.177547 0.573843 2.530590 -25.548659 0.447240 2.246899 -22.511955 0.000000 0.000000 -0.000001 0.624415 5.865063 -32.951711 0.338216 1.963476 -19.544649 0.308054 1.876403 -18.644444 -0.000001 -0.000000 0.000002 1.824691 19.203357 11.545508 0.000000 0.000000 0.000000 10.487536 28.475515 56.014614 0.000006 9.568203 0.000005 -22.610814 1.386470 3.874769 -1.947565 -0.181213 0.243912 12.009343 -28.469799 -16.347964 -15.865406 -2.953685 -12.450419 -0.000005 -0.000001 -0.000001 0.604753 -0.746468 8.399172 0.182839 -1.293442 16.091345 0.032238 -0.547634 6.738114 -0.000003 0.000000 0.000001 0.174338 -3.460945 20.429169 0.249067 -1.504100 18.803608 0.276240 -1.581626 19.812816 0.000001 0.000000 0.000001 -0.253813 -2.927819 28.791583 0.546948 -2.191679 28.020986 0.435669 -1.968562 24.956415 0.000000 0.000001 -0.000001 0.907417 -5.126714 34.355589 0.239255 -1.474951 18.425829 0.215921 -1.403060 17.497560 -0.000001 -0.000002 0.000001 -26.589278 11.711965 17.141114 25.916082 -1.222004 4.193486 -2.945745 0.792137 -7.864884 -4.225108 -0.000009 -0.000002 0.000000 -0.000000 0.000000 -10.398809 -10.025376 10.059246 18.162018 -10.177659 -3.843876 -9.093017 -6.485785 2.070314 -6.990756 0.000081 0.000037 -0.000000 0.000002 -0.000000 
-1.473483 100.770630 -0.207727 2.870183 -2.885756 -7.453316 4.480158 1.819140 1.864958 2.356182 0.713071 0.461645 0.000000 0.000000 0.000000 2.334729 0.752874 0.472487 6.656415 0.568530 -2.323756 -17.479673 3.458299 0.314082 0.000000 -0.000000 0.000001 0.660262 -17.401954 -15.012662 0.000000 0.000000 0.000000 -0.011163 -17.459604 -60.497123 0.000001 -0.683480 0.000008 -32.418789 -2.678455 0.709440 -1.663906 2.373818 5.286375 14.296164 22.185824 13.282563 -13.813333 2.423256 10.987905 -0.000001 0.000003 -0.000003 0.424060 -0.677743 -10.013150 0.264616 1.742418 -17.268550 0.056141 0.809985 -7.929915 -0.000000 -0.000000 -0.000001 -0.036339 3.080140 -19.470399 0.251343 1.699161 -16.826593 0.282097 1.797639 -17.834329 0.000001 -0.000000 -0.000003 0.235156 4.069970 -26.164196 0.570658 2.523915 -25.476349 0.444383 2.239978 -22.438835 0.000000 0.000000 -0.000003 0.637835 5.835881 -32.517028 0.331876 1.945510 -19.358436 0.301984 1.858331 -18.458219 0.000000 -0.000001 -0.000001 1.804314 19.179132 11.642432 0.000000 0.000000 0.000000 11.057257 28.592203 55.566727 0.000012 9.553134 -0.000014 -22.590383 1.225023 4.042592 -1.967299 0.018484 -0.274336 11.921972 -28.297402 -16.374646 -15.841370 -2.998931 -12.470004 0.000001 0.000002 0.000002 0.598505 -0.686747 8.140472 0.182712 -1.293016 16.085632 0.032204 -0.547171 6.732411 -0.000002 0.000001 0.000001 0.160361 -3.417688 20.207473 0.249256 -1.504645 18.810783 0.276442 -1.582173 19.819925 -0.000002 -0.000000 -0.000000 -0.270930 -2.882392 28.582356 0.545827 -2.189596 27.992058 0.434668 -1.966413 24.927142 0.000000 -0.000003 0.000002 0.900873 -5.116478 34.030106 0.238516 -1.472757 18.397405 0.215246 -1.400929 17.470244 0.000000 0.000002 0.000001 -26.041401 11.839388 16.935010 25.587514 -1.121020 4.216528 -2.974440 0.793355 -7.893672 -4.233085 -0.000002 0.000002 0.000000 -0.000001 0.000000 -10.023641 -10.042109 9.876245 17.992349 -10.171706 -3.801874 -9.108422 -6.317044 2.065009 -6.986925 0.000104 0.000034 0.000001 0.000001 0.000000 
